<svg height="488pt" viewBox="-53 0 488 488.70525" width="488pt" xmlns="http://www.w3.org/2000/svg"><path d="m254.992188 338.964844h-16.257813c-.035156-.003906-.070313-.007813-.105469-.007813l-.003906.007813h-106.945312c-28.253907 0-51.15625 21.175781-51.15625 47.296875v42.945312h225.625v-42.945312c0-26.121094-22.90625-47.296875-51.15625-47.296875zm0 0" fill="#a4c9ff"/><path d="m306.148438 433.207031h-225.625c-2.210938 0-4-1.792969-4-4v-42.945312c0-28.289063 24.742187-51.300781 55.15625-51.300781h106.722656c.136718-.007813.277344-.007813.449218 0h16.136719c30.414063 0 55.15625 23.015624 55.15625 51.300781v42.945312c.003907 2.207031-1.789062 4-3.996093 4zm-221.625-8h217.625v-38.945312c0-23.875-21.15625-43.300781-47.15625-43.300781h-16.257813c-.03125 0-.070313 0-.109375 0h-106.945312c-26.003907 0-47.15625 19.425781-47.15625 43.300781zm0 0" fill="#3762cc"/><path d="m328.1875 278.097656-25.871094-112.742187h-216.191406l-25.871094 112.742187c-.6875 2.992188-1.035156 6.058594-1.035156 9.136719 0 21.605469 16.738281 39.121094 37.386719 39.121094h195.230469c20.644531 0 37.382812-17.515625 37.382812-39.121094 0-3.078125-.347656-6.144531-1.03125-9.136719zm0 0" fill="#4671c6"/><path d="m291.835938 330.355469h-195.234376c-22.816406 0-41.382812-19.34375-41.382812-43.121094 0-3.371094.382812-6.746094 1.136719-10.027344l25.871093-112.746093c.414063-1.816407 2.035157-3.105469 3.898438-3.105469h216.191406c1.867188 0 3.484375 1.289062 3.898438 3.105469l25.871094 112.746093c.753906 3.28125 1.132812 6.65625 1.132812 10.027344 0 23.777344-18.5625 43.121094-41.382812 43.121094zm-202.527344-161-25.15625 109.636719c-.617188 2.699218-.933594 5.472656-.933594 8.242187 0 19.363281 14.976562 35.121094 33.382812 35.121094h195.234376c18.40625 0 33.382812-15.757813 33.382812-35.121094 0-2.769531-.316406-5.542969-.933594-8.242187l-25.152344-109.636719zm0 0" fill="#3762cc"/><path d="m193.332031 327.988281c-15.179687 0-29.503906-3.609375-42.148437-10.011719v19.144532c0 .664062.09375 1.316406.230468 1.960937h.011719c.136719.644531.34375 1.265625.605469 1.867188.035156.078125.066406.15625.105469.234375.117187.246094.242187.484375.378906.71875.136719.230468.28125.449218.4375.664062.085937.117188.15625.242188.246094.355469l5.988281 7.613281c5.964844 7.578125 14.234375 13.070313 23.59375 15.261719 1.253906.292969 2.558594.546875 3.90625.75 15.199219 2.277344 30.402344-4.195313 39.851562-16.386719l8.726563-11.257812c.121094-.605469.199219-1.21875.199219-1.839844v-19.074219c-12.644532 6.394531-26.957032 10-42.132813 10zm0 0" fill="#f9cfcf"/><path d="m286.816406 200.910156c-.195312 0-.386718.027344-.585937.03125v-8.699218c0-50.839844-41.589844-92.058594-92.898438-92.058594-51.300781 0-92.894531 41.21875-92.894531 92.058594v8.699218c-.199219-.003906-.390625-.03125-.585938-.03125-15.652343 0-28.339843 12.574219-28.339843 28.085938 0 15.511718 12.6875 28.085937 28.339843 28.085937 1.027344 0 2.039063-.058593 3.039063-.164062 9.585937 40.726562 46.425781 71.074219 90.441406 71.074219s80.855469-30.347657 90.441407-71.074219c1 .105469 2.011718.164062 3.039062.164062 15.652344 0 28.339844-12.574219 28.339844-28.085937.003906-15.511719-12.683594-28.085938-28.335938-28.085938zm0 0" fill="#f9cfcf"/><g fill="#3762cc"><path d="m147.171875 243.605469c-5.378906 0-9.75-4.371094-9.75-9.75v-16.25c0-5.375 4.371094-9.753907 9.75-9.753907 5.375 0 9.75 4.375 9.75 9.753907v16.25c.003906 5.378906-4.375 9.75-9.75 9.75zm0 0"/><path d="m239.058594 243.605469c-5.378906 0-9.753906-4.371094-9.753906-9.75v-16.25c0-5.375 4.375-9.753907 9.753906-9.753907 5.375 0 9.75 4.375 9.75 9.753907v16.25c0 5.378906-4.375 9.75-9.75 9.75zm0 0"/><path d="m193.332031 331.988281c-44.128906 0-82.113281-28.988281-93.511719-70.90625-17.816406-.015625-32.308593-14.40625-32.308593-32.085937 0-16.550782 12.695312-30.210938 28.929687-31.910156v-4.84375c0-52.96875 43.464844-96.058594 96.890625-96.058594 53.429688 0 96.894531 43.089844 96.894531 96.058594v4.84375c16.234376 1.699218 28.929688 15.359374 28.929688 31.910156 0 17.679687-14.492188 32.070312-32.308594 32.085937-11.398437 41.917969-49.378906 70.90625-93.515625 70.90625zm-90.433593-79.074219c1.832031 0 3.460937 1.261719 3.890624 3.085938 9.421876 40.03125 45.011719 67.988281 86.542969 67.988281 41.535157 0 77.128907-27.957031 86.546875-67.988281.464844-1.960938 2.304688-3.269531 4.316406-3.0625.921876.097656 1.777344.144531 2.621094.144531 13.421875 0 24.339844-10.804687 24.339844-24.085937 0-13.269532-10.894531-24.066406-24.300781-24.085938-.238281.015625-.390625.023438-.546875.027344-1.15625.027344-2.113282-.390625-2.878906-1.140625-.769532-.753906-1.199219-1.785156-1.199219-2.859375v-8.695312c0-48.558594-39.878907-88.058594-88.894531-88.058594-49.015626 0-88.894532 39.5-88.894532 88.058594v8.695312c0 1.074219-.429687 2.105469-1.199218 2.859375-.75.730469-1.753907 1.140625-2.800782 1.140625-.027344 0-.050781 0-.078125 0-.160156 0-.316406-.011719-.472656-.023438h-.007813c-13.457031 0-24.371093 10.804688-24.371093 24.082032 0 13.28125 10.921875 24.085937 24.34375 24.085937.839843 0 1.699219-.046875 2.621093-.144531.140626-.015625.28125-.023438.421876-.023438zm0 0"/></g><path d="m374.21875 186.410156v-101.863281c0-4.785156-3.867188-8.660156-8.640625-8.660156s-8.640625 3.878906-8.640625 8.660156v101.863281c-5.371094 3.015625-9.003906 8.757813-9.003906 15.355469v27.875c0 2.382813 1.929687 4.3125 4.308594 4.3125h26.664062c2.382812 0 4.3125-1.929687 4.3125-4.3125v-27.875c.003906-6.597656-3.628906-12.339844-9-15.355469zm0 0" fill="#ffea92"/><path d="m298.125 188.910156h-33.378906c-14.550782 0-26.347656-11.792968-26.347656-26.347656v-25.824219c0-8.730469 7.078124-15.808593 15.808593-15.808593h16.769531c19.714844 0 35.695313 15.980468 35.695313 35.691406v23.742187c0 4.722657-3.824219 8.546875-8.546875 8.546875zm0 0" fill="#4671c6"/><path d="m298.125 192.910156h-33.378906c-16.730469 0-30.347656-13.613281-30.347656-30.347656v-25.824219c0-10.921875 8.886718-19.808593 19.808593-19.808593h16.773438c21.886719 0 39.695312 17.804687 39.695312 39.691406v23.742187c-.003906 6.921875-5.632812 12.546875-12.550781 12.546875zm-43.917969-67.980468c-6.511719 0-11.808593 5.296874-11.808593 11.808593v25.824219c0 12.324219 10.027343 22.347656 22.347656 22.347656h33.378906c2.507812 0 4.546875-2.039062 4.546875-4.542968v-23.742188c0-17.476562-14.214844-31.695312-31.695313-31.695312zm0 0" fill="#3762cc"/><path d="m199.464844 188.910156h-92.277344c-16.949219 0-30.691406-13.738281-30.691406-30.6875v-10.113281c0-16.613281 13.46875-30.082031 30.085937-30.082031h106.222657c14.136718 0 25.597656 11.460937 25.597656 25.597656v6.351562c-.003906 21.503907-17.433594 38.933594-38.9375 38.933594zm0 0" fill="#4671c6"/><path d="m199.464844 192.910156h-92.277344c-19.128906 0-34.691406-15.5625-34.691406-34.6875v-10.113281c0-18.792969 15.289062-34.082031 34.082031-34.082031h106.222656c16.320313 0 29.597657 13.277344 29.597657 29.597656v6.351562c0 23.675782-19.257813 42.933594-42.933594 42.933594zm-92.886719-70.886718c-14.378906 0-26.082031 11.703124-26.082031 26.085937v10.109375c0 14.71875 11.972656 26.691406 26.691406 26.691406h92.28125c19.261719 0 34.933594-15.671875 34.933594-34.933594v-6.351562c0-11.910156-9.691406-21.601562-21.597656-21.601562zm0 0" fill="#3762cc"/><path d="m305.609375 93.410156c-26.515625-4.324218-125.835937-18.058594-224.921875-.039062-3.929688.714844-6.484375 2.503906-6.484375 4.457031v44.640625c0 2.027344 2.71875 3.832031 6.855469 4.507812 26.515625 4.324219 125.835937 18.058594 224.921875.035157 3.929687-.710938 6.484375-2.503907 6.484375-4.453125v-44.644532c0-2.027343-2.71875-3.832031-6.855469-4.503906zm0 0" fill="#a4c9ff"/><path d="m198.269531 160.070312c-55.425781 0-100.414062-6.304687-117.855469-9.148437-6.296874-1.023437-10.210937-4.265625-10.210937-8.453125v-44.550781c0-4.171875 3.746094-7.386719 9.769531-8.484375 99.1875-18.035156 198.273438-4.539063 226.285156.027344 6.296876 1.027343 10.207032 4.265624 10.207032 8.453124v44.550782c0 4.171875-3.742188 7.386718-9.769532 8.484375-37.421874 6.804687-74.84375 9.121093-108.425781 9.121093zm-120.066406-18.230468c.460937.324218 1.558594.871094 3.5 1.1875 27.6875 4.515625 125.636719 17.859375 223.5625.050781 1.761719-.320313 2.765625-.835937 3.199219-1.148437v-43.386719c-.460938-.324219-1.558594-.871094-3.5-1.1875-27.683594-4.515625-125.632813-17.859375-223.5625-.050781-1.757813.320312-2.765625.835937-3.199219 1.148437zm0 0" fill="#3762cc"/><path d="m193.210938 362.304688h-18.828126v15.589843l7.789063 23.996094h22.328125l7.789062-23.996094v-15.589843zm0 0" fill="#f9a7a7"/><path d="m204.496094 401.890625h-22.324219l-7.449219 27.386719h37.222656zm0 0" fill="#f9a7a7"/><path d="m192.738281 371c-2.207031 0-4.429687-.160156-6.644531-.496094-1.398438-.207031-2.820312-.480468-4.222656-.8125-10.039063-2.347656-19.210938-8.273437-25.824219-16.683594l-5.988281-7.613281c-.113282-.140625-.234375-.316406-.351563-.492187-.226562-.320313-.4375-.636719-.628906-.960938-.210937-.359375-.394531-.703125-.558594-1.058594-.023437-.042968-.105469-.234374-.125-.277343-.347656-.785157-.609375-1.558594-.792969-2.332031-.039062-.113282-.066406-.230469-.09375-.347657-.214843-1.007812-.320312-1.925781-.320312-2.804687v-19.144532c0-1.390624.71875-2.679687 1.902344-3.40625 1.183594-.730468 2.65625-.792968 3.902344-.164062 12.5625 6.359375 26.136718 9.582031 40.347656 9.582031 14.195312 0 27.765625-3.21875 40.320312-9.566406 1.238282-.628906 2.71875-.566406 3.902344.160156 1.183594.730469 1.902344 2.019531 1.902344 3.410157v19.074218c0 .835938-.089844 1.695313-.277344 2.625-.121094.609375-.382812 1.175782-.757812 1.664063l-8.730469 11.261719c-9.054688 11.679687-22.785157 18.382812-36.960938 18.382812zm-37.464843-33.007812c.027343.085937.046874.171874.066406.261718.074218.355469.195312.722656.355468 1.085938.128907.289062.203126.421875.28125.554687.0625.105469.148438.230469.234376.355469.027343.035156.132812.191406.160156.230469l5.960937 7.585937c5.496094 6.988282 13.082031 11.902344 21.359375 13.839844 1.195313.277344 2.402344.511719 3.585938.6875 13.574218 2.035156 27.40625-3.667969 36.097656-14.878906l8.082031-10.429688c.003907-.074218.007813-.148437.007813-.21875v-12.804687c-12.03125 5.128906-24.828125 7.726562-38.128906 7.726562-13.308594 0-26.117188-2.601562-38.152344-7.738281v12.867188c0 .253906.03125.539062.089844.875zm0 0" fill="#3762cc"/><path d="m151.183594 327.988281h-14.363282c-1.929687 0-3.78125.691407-5.136718 1.921875l-8.617188 7.808594c-1.324218 1.199219-1.394531 3.109375-.160156 4.382812l46.550781 48.007813c2.515625 2.597656 7.171875 2.089844 8.914063-.972656l14.953125-26.253907zm0 0" fill="#e0ebfc"/><path d="m235.144531 327.988281h14.363281c1.929688 0 3.78125.691407 5.136719 1.921875l8.617188 7.808594c1.324219 1.199219 1.394531 3.109375.160156 4.382812l-46.550781 48.007813c-2.515625 2.597656-7.171875 2.089844-8.914063-.972656l-14.953125-26.253907zm0 0" fill="#e0ebfc"/><path d="m173.546875 395.785156c-2.632813 0-5.167969-1.035156-6.960937-2.886718l-46.546876-48.011719c-1.359374-1.402344-2.070312-3.222657-2.007812-5.128907.0625-1.914062.898438-3.691406 2.355469-5.007812l8.617187-7.804688c2.105469-1.90625 4.882813-2.957031 7.820313-2.957031h14.363281c.929688 0 1.832031.324219 2.546875.917969l42.140625 34.894531c1.496094 1.238281 1.886719 3.375.925781 5.058594l-14.949219 26.257813c-1.445312 2.527343-4.007812 4.199218-7.039062 4.585937-.421875.054687-.847656.082031-1.265625.082031zm-47.074219-55.75 45.855469 47.292969c.398437.410156 1.023437.496094 1.476563.4375.503906-.0625.910156-.289063 1.089843-.605469l13.292969-23.335937-38.445312-31.832031h-12.917969c-.9375 0-1.832031.320312-2.453125.886718zm0 0" fill="#3762cc"/><path d="m212.78125 395.785156c-.417969 0-.84375-.027344-1.265625-.082031-3.03125-.382813-5.59375-2.054687-7.039063-4.585937l-14.949218-26.253907c-.960938-1.6875-.570313-3.820312.925781-5.058593l42.140625-34.898438c.714844-.59375 1.617188-.917969 2.546875-.917969h14.363281c2.9375 0 5.714844 1.050781 7.820313 2.957031l8.621093 7.808594c1.453126 1.316406 2.289063 3.09375 2.351563 5.007813.0625 1.90625-.648437 3.726562-2.003906 5.125l-46.550781 48.011719c-1.792969 1.851562-4.328126 2.886718-6.960938 2.886718zm-14.636719-31.960937 13.289063 23.332031c.179687.316406.589844.546875 1.089844.609375.457031.058594 1.082031-.027344 1.480468-.4375l45.855469-47.296875-7.898437-7.15625c-.621094-.5625-1.515626-.886719-2.453126-.886719h-12.917968zm0 0" fill="#3762cc"/><path d="m184.941406 417.328125v66.71875l-140 .660156v-86.179687c0-9.035156 5.910156-15.855469 12.316406-14.199219zm0 0" fill="#6bdddd"/><path d="m200.941406 417.328125v66.71875l140 .660156v-86.179687c0-9.035156-5.914062-15.855469-12.316406-14.199219zm0 0" fill="#6bdddd"/><path d="m223.945312 450.859375v33.46875l100.773438.378906v-49.546875c0-5.195312-4.257812-9.113281-8.863281-8.160156l-87.125 17.984375c-2.785157.574219-4.785157 3.027344-4.785157 5.875zm0 0" fill="#e0ebfc"/><path d="m340.941406 488.707031c-.007812 0-.011718 0-.019531 0l-140-.660156c-2.203125-.007813-3.980469-1.796875-3.980469-4v-66.71875c0-1.824219 1.234375-3.414063 3-3.871094l127.683594-33c3.601562-.933593 7.308594-.121093 10.414062 2.285157 4.320313 3.34375 6.902344 9.246093 6.902344 15.785156v86.179687c0 1.0625-.425781 2.082031-1.179687 2.832031-.75.75-1.765625 1.167969-2.820313 1.167969zm-136-8.640625 132 .617188v-82.15625c0-3.960938-1.492187-7.675782-3.796875-9.460938-1.140625-.882812-2.328125-1.175781-3.519531-.863281l-124.683594 32.222656zm0 0" fill="#3762cc"/><path d="m44.941406 488.707031c-1.058594 0-2.074218-.417969-2.824218-1.167969-.753907-.75-1.175782-1.769531-1.175782-2.832031v-86.179687c0-6.539063 2.578125-12.441406 6.898438-15.785156 3.105468-2.40625 6.796875-3.21875 10.417968-2.285157l127.683594 33c1.765625.453125 3 2.046875 3 3.871094v66.71875c0 2.199219-1.78125 3.988281-3.980468 4l-140 .65625c-.007813.003906-.015626.003906-.019532.003906zm10.390625-100.625c-.878906 0-1.75.332031-2.59375.984375-2.308593 1.789063-3.796875 5.5-3.796875 9.460938v82.15625l132-.617188v-59.640625l-124.683594-32.222656c-.308593-.078125-.617187-.121094-.925781-.121094zm0 0" fill="#3762cc"/><path d="m176.941406 416.359375h32v67.734375h-32zm0 0" fill="#4671c6"/><path d="m208.941406 488.09375h-32c-2.210937 0-4-1.789062-4-4v-67.734375c0-2.207031 1.789063-4 4-4h32c2.207032 0 4 1.792969 4 4v67.734375c0 2.210938-1.792968 4-4 4zm-28-8h24v-59.734375h-24zm0 0" fill="#3762cc"/><path d="m208.878906 270.757812h-31.089844c-1.691406 0-3.066406 1.375-3.066406 3.066407v7.671875c0 2.835937 1.210938 5.59375 3.449219 7.847656 2.679687 2.699219 6.613281 4.449219 10.921875 4.941406h8.480469c4.308593-.492187 8.242187-2.238281 10.921875-4.941406 2.238281-2.257812 3.449218-5.011719 3.449218-7.847656v-7.671875c0-1.691407-1.371093-3.066407-3.066406-3.066407zm0 0" fill="#f9a7a7"/><path d="m197.574219 297.289062h-8.476563c-.117187 0-.230468-.007812-.34375-.023437-5.054687-.578125-9.570312-2.640625-12.710937-5.808594-2.785157-2.808593-4.316407-6.34375-4.316407-9.960937v-7.671875c0-3.34375 2.722657-6.066407 6.066407-6.066407h31.085937c3.347656 0 6.070313 2.722657 6.070313 6.066407v7.671875c0 3.617187-1.535157 7.152344-4.316407 9.960937-3.144531 3.167969-7.660156 5.226563-12.710937 5.808594-.117187.015625-.234375.023437-.347656.023437zm-8.300781-6h8.125c3.585937-.445312 6.847656-1.917968 8.972656-4.054687 1.683594-1.699219 2.574218-3.683594 2.574218-5.734375l-.066406-7.742188h-31.085937l-.070313 7.742188c0 2.050781.890625 4.035156 2.578125 5.734375 2.121094 2.136719 5.382813 3.609375 8.972657 4.054687zm0 0" fill="#3762cc"/><path d="m368.3125 75.917969-171.808594-70.5c-4.601562-1.886719-9.714844-1.886719-14.3125 0l-171.761718 70.480469c-8.21875 3.371093-8.066407 15.570312.234374 18.71875l63.539063 24.082031v-20.871094c0-1.953125 2.554687-3.742187 6.484375-4.457031 99.085938-18.019532 198.40625-4.285156 224.921875.039062 4.136719.671875 6.855469 2.480469 6.855469 4.503906v17.761719l55.613281-21.078125c8.285156-3.140625 8.4375-15.3125.234375-18.679687zm0 0" fill="#a4c9ff"/><path d="m74.203125 122.703125c-.476563 0-.957031-.085937-1.417969-.261719l-63.539062-24.085937c-5.320313-2.015625-8.8125-7.101563-8.890625-12.949219-.078125-5.855469 3.28125-11.039062 8.558593-13.207031l171.757813-70.476563c5.589844-2.296875 11.753906-2.296875 17.351563 0l171.804687 70.5c5.273437 2.160156 8.628906 7.339844 8.546875 13.1875-.078125 5.839844-3.5625 10.914063-8.878906 12.929688l-55.613282 21.078125c-1.230468.46875-2.609374.300781-3.691406-.445313-1.082031-.746094-1.726562-1.980468-1.726562-3.292968v-17.132813c-.460938-.328125-1.558594-.875-3.5-1.191406-27.6875-4.511719-125.636719-17.855469-223.5625-.046875-1.761719.320312-2.765625.835937-3.199219 1.144531v20.25c0 1.3125-.648437 2.542969-1.726563 3.292969-.675781.464844-1.472656.707031-2.273437.707031zm115.144531-114.703125c-1.910156 0-3.820312.375-5.636718 1.121094l-171.761719 70.476562c-2.691407 1.105469-3.625 3.667969-3.59375 5.703125.027343 2.019531 1.019531 4.546875 3.726562 5.578125l58.121094 22.027344v-14.988281c0-4.171875 3.746094-7.386719 9.769531-8.484375 99.1875-18.035156 198.273438-4.539063 226.285156.027344 6.296876 1.027343 10.207032 4.269531 10.207032 8.453124v11.96875l50.195312-19.027343c2.703125-1.019531 3.691406-3.539063 3.71875-5.554688.027344-2.027343-.898437-4.578125-3.582031-5.679687l-171.8125-70.5c-1.820313-.746094-3.726563-1.121094-5.636719-1.121094zm0 0" fill="#3762cc"/></svg>