<svg xmlns="http://www.w3.org/2000/svg" viewBox="0 0 200 120" fill="none">
  <!-- Background -->
  <rect width="200" height="120" fill="#f8fafc" stroke="#e2e8f0" stroke-width="1"/>
  
  <!-- Large quotation marks -->
  <path d="M60 25c-8 0-12 6-12 12 0 6 4 10 8 10 4 0 6-2 6-6 0-3-2-5-4-5-1 0-2 1-2 2 0-4 2-6 6-6v-7z" fill="#d1d5db"/>
  <path d="M80 25c-8 0-12 6-12 12 0 6 4 10 8 10 4 0 6-2 6-6 0-3-2-5-4-5-1 0-2 1-2 2 0-4 2-6 6-6v-7z" fill="#d1d5db"/>
  
  <!-- Testimonial text -->
  <rect x="40" y="45" width="120" height="4" rx="2" fill="#1f2937"/>
  <rect x="50" y="52" width="100" height="3" rx="1.5" fill="#374151"/>
  <rect x="45" y="58" width="110" height="3" rx="1.5" fill="#374151"/>
  <rect x="55" y="64" width="90" height="3" rx="1.5" fill="#374151"/>
  
  <!-- Customer info section -->
  <rect x="40" y="80" width="120" height="25" rx="4" fill="white" stroke="#e5e7eb" stroke-width="1"/>
  
  <!-- Avatar -->
  <circle cx="55" cy="92" r="8" fill="#e5e7eb" stroke="#d1d5db" stroke-width="1"/>
  <circle cx="55" cy="88" r="3" fill="#9ca3af"/>
  <path d="M49 97c0-3 3-5 6-5s6 2 6 5" stroke="#9ca3af" stroke-width="1.5" fill="none"/>
  
  <!-- Customer name and role -->
  <rect x="70" y="87" width="40" height="4" rx="2" fill="#1f2937"/>
  <rect x="70" y="93" width="30" height="3" rx="1.5" fill="#6b7280"/>
  <rect x="70" y="98" width="35" height="2" rx="1" fill="#9ca3af"/>
  
  <!-- Rating stars -->
  <path d="M125 87l2 4h4l-3 3 1 4-4-2-4 2 1-4-3-3h4l2-4z" fill="#f59e0b" opacity="0.8"/>
  <path d="M135 87l2 4h4l-3 3 1 4-4-2-4 2 1-4-3-3h4l2-4z" fill="#f59e0b" opacity="0.8"/>
  <path d="M145 87l2 4h4l-3 3 1 4-4-2-4 2 1-4-3-3h4l2-4z" fill="#f59e0b" opacity="0.8"/>
  <path d="M155 87l2 4h4l-3 3 1 4-4-2-4 2 1-4-3-3h4l2-4z" fill="#f59e0b" opacity="0.8"/>
  <path d="M165 87l2 4h4l-3 3 1 4-4-2-4 2 1-4-3-3h4l2-4z" fill="#f59e0b" opacity="0.3"/>
</svg>

