<svg fill="none" viewBox="0 0 600 600" xmlns="http://www.w3.org/2000/svg"><path d="m307.031 292.969h-14.062v14.062h14.062z" fill="#fff"/><path d="m600 0h-600v600h600z" fill="#fff"/><path d="m600 0h-600v600h600z" fill="#0056d2"/><g fill="#fff"><path d="m117.913 300.434c0-19.301 15.923-34.875 35.859-34.875 20.07 0 35.992 15.574 35.992 34.875 0 19.167-15.922 35.007-35.992 35.007-19.936 0-35.859-15.973-35.859-35.007zm54.725 0c0-9.583-8.43-18.104-18.866-18.104-10.303 0-18.598 8.521-18.598 18.104 0 9.717 8.429 18.236 18.598 18.236 10.436 0 18.866-8.519 18.866-18.236z"/><path d="m478.15 300.965c0-21.164 17.326-35.406 33.036-35.406 10.747 0 16.924 3.194 21.086 9.452l1.612-8.253h16.116v67.353h-16.116l-2.015-6.923c-4.701 5.059-10.61 8.253-20.546 8.253-15.713 0-33.173-13.577-33.173-34.476zm54.795-.133c0-10.247-8.463-18.502-18.936-18.502-10.341 0-18.668 8.388-18.668 18.771 0 9.316 8.461 17.702 18.668 17.702 10.607-.133 18.936-8.519 18.936-17.971z"/><path d="m458.833 274.982v-7.721h-17.101v66.211h17.101v-35.724c0-10.729 5.221-16.356 14.487-16.356.652 0 1.176 0 1.697.131l3.133-15.964c-8.875.131-15.272 3.14-19.317 9.423z"/><path d="m284.158 274.982v-7.721h-17.623l.135 66.211h17.625l-.137-35.724c0-10.729 5.382-16.356 14.801-16.356.672 0 1.209 0 1.75.131l3.228-15.964c-9.15.131-15.741 3.14-19.779 9.423z"/><path d="m196.654 307.776v-41.233h17.209v39.104c0 8.645 4.73 13.699 13.006 13.699 9.196 0 14.583-5.718 14.583-16.624v-36.179h17.209v67.3h-17.209v-7.845c-4.073 6.383-10.641 9.442-19.706 9.442-15.502.133-25.092-11.172-25.092-27.664z"/><path d="m365.945 300.369c0-18.867 13.621-34.942 34.985-34.809 19.893 0 33.913 15.942 33.913 34.541 0 1.861-.134 3.854-.401 5.582l-51.405-.133c2.004 8.104 8.678 13.816 18.693 13.949 6.141 0 12.685-2.259 16.69-7.308l11.885 9.567c-6.144 8.634-16.959 13.683-28.441 13.683-20.297-.265-35.919-15.411-35.919-35.072zm51.408-6.909c-.937-6.777-8.145-12.091-16.423-12.091-8.145 0-14.689 4.783-17.226 11.958z"/><path d="m303.937 319.559 15.522-8.073c2.542 5.558 7.76 8.734 14.984 8.734 6.691 0 9.234-2.118 9.234-5.029 0-10.721-36.93-4.234-36.93-28.853 0-13.631 12.043-20.779 26.894-20.779 11.239 0 21.274 4.897 26.76 14.163l-15.388 8.073c-2.272-4.5-6.555-7.015-12.041-7.015-5.352 0-7.894 1.854-7.894 4.897 0 10.456 36.93 3.837 36.93 28.853 0 12.97-10.704 20.911-27.966 20.911-14.717-.132-25.02-4.897-30.105-15.882z"/><path d="m50 300.074c0-19.161 15.7897-34.515 35.5599-34.515 12.7377 0 23.7511 6.301 30.1201 15.747l-14.861 8.532c-3.4503-4.724-8.8902-7.873-15.2591-7.873-10.2169 0-18.4434 8.398-18.4434 17.978 0 9.578 8.359 17.976 18.4434 17.976 6.6342 0 12.4724-3.411 15.6571-8.529l14.728 8.66c-6.236 9.843-17.5148 16.406-30.3851 16.406-19.7702.131-35.5599-15.616-35.5599-34.382z"/></g></svg>
